# xmcd
#
# Track frame offsets: 
#        150
#        13575
#        26390
#        39871
#        62221
#        80566
#        98290
#        111715
#        126865
#        143897
#        158060
#        172593
#        186871
#        205444
#        225432
#        242751
#
# Disc length: 3454 seconds
#
# Revision: 1
# Processed by: cddbd v1.5.2PL0 Copyright (c) Steve Scherf et al.
# Submitted via: ExactAudioCopyFreeDBPlugin 1.0
#
DISCID=c70d7c10
DTITLE=Emerson Drive - Decade of Drive
DYEAR=2011
DGENRE=Country
TTITLE0=I Should Be Sleeping
TTITLE1=Fall Into Me
TTITLE2=Countrified Soul
TTITLE3=Moments
TTITLE4=The Extra Mile
TTITLE5=Believe
TTITLE6=A Good Man
TTITLE7=Everyday Woman
TTITLE8=I Love This Road
TTITLE9=That Kind of Beautiful
TTITLE10=When I See You Again
TTITLE11=Sleep It Off
TTITLE12=Let Your Love Speak
TTITLE13=November
TTITLE14=Belong to You
TTITLE15=Last One Standing
EXTD=
EXTT0=
EXTT1=
EXTT2=
EXTT3=
EXTT4=
EXTT5=
EXTT6=
EXTT7=
EXTT8=
EXTT9=
EXTT10=
EXTT11=
EXTT12=
EXTT13=
EXTT14=
EXTT15=
PLAYORDER=
